<?xml version="1.0" encoding="iso-8859-1"?>
<!-- Generator: Adobe Illustrator 19.0.0, SVG Export Plug-In . SVG Version: 6.00 Build 0)  -->
<svg version="1.1" id="Layer_1" xmlns="http://www.w3.org/2000/svg" xmlns:xlink="http://www.w3.org/1999/xlink" x="0px" y="0px"
	 viewBox="0 0 512 512" style="enable-background:new 0 0 512 512;" xml:space="preserve">
<path style="fill:#FFC033;" d="M0,356.174v105.739C0,489.532,22.468,512,50.087,512h411.826C489.532,512,512,489.532,512,461.913
	V356.174H0z"/>
<path style="fill:#F9A926;" d="M256,512h205.913C489.532,512,512,489.532,512,461.913V356.174H256V512z"/>
<path style="fill:#F26D76;" d="M372.87,100.174H139.13c-9.217,0-16.696-7.473-16.696-16.696V33.391
	C122.435,14.978,137.413,0,155.826,0h200.348c18.413,0,33.391,14.978,33.391,33.391v50.087
	C389.565,92.701,382.087,100.174,372.87,100.174z"/>
<path style="fill:#E65C64;" d="M356.174,0H256v100.174h116.87c9.217,0,16.696-7.473,16.696-16.696V33.391
	C389.565,14.978,374.587,0,356.174,0z"/>
<path style="fill:#FFC033;" d="M461.913,66.783H50.087C22.468,66.783,0,89.25,0,116.87v116.87h512V116.87
	C512,89.25,489.532,66.783,461.913,66.783z"/>
<path style="fill:#F9A926;" d="M461.913,66.783H256v166.957h256V116.87C512,89.25,489.532,66.783,461.913,66.783z"/>
<path style="fill:#F26D76;" d="M0,200.348v189.217h512V200.348H0z"/>
<rect x="256" y="200.348" style="fill:#E65C64;" width="256" height="189.217"/>
<path style="fill:#D7EBFF;" d="M256,445.217c-85.924,0-155.826-69.902-155.826-155.826S170.076,133.565,256,133.565
	s155.826,69.902,155.826,155.826S341.924,445.217,256,445.217z"/>
<path style="fill:#BDDEFF;" d="M411.826,289.391c0-85.924-69.902-155.826-155.826-155.826v311.652
	C341.924,445.217,411.826,375.315,411.826,289.391z"/>
<path style="fill:#36D9D9;" d="M256,166.957c-67.511,0-122.435,54.924-122.435,122.435S188.489,411.826,256,411.826
	s122.435-54.924,122.435-122.435S323.511,166.957,256,166.957z"/>
<path style="fill:#43BFBF;" d="M378.435,289.391c0-67.511-54.924-122.435-122.435-122.435v244.87
	C323.511,411.826,378.435,356.902,378.435,289.391z"/>
<path style="fill:#D7EBFF;" d="M256,378.435c-49.097,0-89.043-39.946-89.043-89.043s39.946-89.043,89.043-89.043
	s89.043,39.946,89.043,89.043S305.097,378.435,256,378.435z"/>
<g>
	<path style="fill:#E65C64;" d="M456.348,66.783h-33.391V50.087c0-9.22,7.475-16.696,16.696-16.696l0,0
		c9.22,0,16.696,7.475,16.696,16.696V66.783z"/>
	<circle style="fill:#E65C64;" cx="428.522" cy="150.261" r="16.696"/>
</g>
<path style="fill:#36D9D9;" d="M256,233.739c-30.684,0-55.652,24.968-55.652,55.652s24.968,55.652,55.652,55.652
	s55.652-24.968,55.652-55.652S286.684,233.739,256,233.739z"/>
<path style="fill:#BDDEFF;" d="M345.043,289.391c0-49.097-39.946-89.043-89.043-89.043v178.087
	C305.097,378.435,345.043,338.489,345.043,289.391z"/>
<path style="fill:#43BFBF;" d="M311.652,289.391c0-30.684-24.968-55.652-55.652-55.652v111.304
	C286.684,345.043,311.652,320.076,311.652,289.391z"/>
<g>
</g>
<g>
</g>
<g>
</g>
<g>
</g>
<g>
</g>
<g>
</g>
<g>
</g>
<g>
</g>
<g>
</g>
<g>
</g>
<g>
</g>
<g>
</g>
<g>
</g>
<g>
</g>
<g>
</g>
</svg>
